<?xml version="1.0" standalone="no"?>
<!DOCTYPE svg PUBLIC "-//W3C//DTD SVG 20010904//EN"
 "http://www.w3.org/TR/2001/REC-SVG-20010904/DTD/svg10.dtd">
<svg version="1.0" xmlns="http://www.w3.org/2000/svg"
 width="502.000000pt" height="400.000000pt" viewBox="0 0 502.000000 400.000000"
 preserveAspectRatio="xMidYMid meet">
<metadata>
Logo, ICAXA - Inmobiliaria 2020
</metadata>
<g transform="translate(0.000000,400.000000) scale(0.100000,-0.100000)"
fill="#000000" stroke="none">
<path fill="#ff0411" d="M4948 3786 c-10 -10 -18 -24 -18 -32 0 -8 -6 -17 -14 -20 -8 -3 -19
-19 -25 -35 -5 -16 -14 -29 -19 -29 -5 0 -15 -13 -22 -30 -7 -16 -16 -30 -20
-30 -4 0 -13 -13 -20 -30 -7 -16 -16 -30 -20 -30 -4 0 -13 -13 -20 -30 -7 -16
-16 -30 -21 -30 -5 0 -16 -14 -25 -32 -16 -32 -26 -45 -56 -78 -9 -10 -22 -29
-29 -41 -13 -26 -18 -32 -55 -74 l-26 -30 202 -3 c112 -1 205 -1 207 1 2 2 2
131 1 287 -3 270 -4 283 -20 266z"/>
<path fill="#020f4a" d="M4395 3030 c-4 -11 -17 -33 -30 -48 -13 -15 -34 -40 -47 -55 -13 -15
-41 -48 -63 -73 -22 -25 -51 -59 -65 -76 -21 -26 -77 -88 -142 -159 -18 -19
-9 -19 452 -19 l470 0 0 225 0 225 -284 0 c-277 0 -285 -1 -291 -20z"/>
<path fill="#ff0411" d="M3765 2325 c-60 -63 -120 -119 -132 -126 -13 -7 -23 -18 -23 -26 0
-7 -4 -13 -8 -13 -5 0 -33 -24 -64 -52 -31 -29 -72 -67 -92 -85 -20 -18 -36
-35 -36 -38 0 -3 351 -5 780 -5 l780 0 0 230 0 230 -547 -1 -548 -1 -110 -113z"/>
<path fill="#020f4a" d="M3175 1789 c-34 -34 -49 -46 -72 -57 -11 -7 -41 -30 -65 -53 -61 -58
-70 -65 -96 -78 -13 -7 -32 -20 -42 -29 -9 -9 -29 -26 -44 -37 -14 -11 -36
-28 -47 -37 -12 -10 -25 -18 -29 -18 -4 0 -20 -11 -36 -25 -44 -38 -48 -41
-90 -64 l-39 -20 1178 -1 1177 0 0 220 0 220 -887 -1 c-868 -1 -888 -1 -908
-20z"/>
<path fill="#ff0411" d="M2353 1185 c-18 -8 -33 -18 -33 -23 0 -4 -16 -14 -35 -21 -19 -7 -35
-16 -35 -20 0 -5 -13 -14 -30 -21 -16 -7 -30 -16 -30 -20 0 -5 -20 -16 -45
-26 -25 -9 -45 -20 -45 -25 0 -4 -9 -11 -20 -14 -11 -3 -26 -12 -33 -20 -13
-13 -34 -25 -123 -70 -21 -11 -41 -23 -44 -26 -3 -4 -41 -25 -85 -48 -44 -23
-88 -47 -98 -55 -9 -7 -35 -19 -57 -26 -22 -7 -40 -17 -40 -22 0 -4 758 -8
1685 -8 l1685 0 0 230 0 230 -1292 0 c-1091 -1 -1298 -3 -1325 -15z"/>
<path fill="#020f4a" d="M1145 533 c-38 -15 -71 -30 -73 -34 -2 -4 -56 -26 -120 -50 -64 -23
-119 -46 -122 -50 -10 -15 -687 -248 -723 -250 -12 0 -38 -7 -57 -14 -30 -11
353 -14 2443 -14 l2477 -1 0 220 0 220 -1877 -1 -1878 0 -70 -26z"/>
</g>
</svg>