<?xml version="1.0" encoding="UTF-8"?>
<svg viewBox="0 0 464 345" xmlns="http://www.w3.org/2000/svg" xmlns:xlink="http://www.w3.org/1999/xlink" version="1.1">
 <!-- Generated by Pixelmator Pro 1.7 -->
 <g id="group">
  <path id="Trazado" d="M126.5 20.1 C111.1 22.2 94.8 27.5 82.8 34.4 65.6 44.1 53.9 56.2 46.5 71.5 41 83 39.5 89.3 39.6 101 39.8 114.4 43.2 125.5 51.2 137.7 55 143.7 55.1 144.1 54 147.7 52 153.6 48.2 160.8 42.8 168.7 37.9 175.8 37.8 176 39.4 178.5 40.7 180.5 41.9 181 45.5 181 53.6 181 70.2 176.4 80.2 171.4 86.1 168.4 86.4 168.4 94.6 171.9 102.9 175.4 106 174.8 106 169.3 106 166.1 105.7 165.8 97.4 162 92.6 159.8 87.7 158 86.6 158 85.4 158 81.3 159.6 77.4 161.5 70.2 165.2 57.3 169.6 56.4 168.7 56.1 168.4 57.4 164.9 59.3 160.8 66.5 145.7 66.6 142.2 60.1 132.4 46.3 111.9 46 89.5 59.2 69 63.6 62.1 76.8 49.6 84.2 45.2 129.6 18.3 194.7 26.2 226.5 62.4 232.7 69.5 235.7 70.7 238.3 66.9 240.5 63.8 239.5 61.9 231.3 53.1 216.8 37.5 196.5 26.7 171.5 21.5 162 19.5 136.6 18.7 126.5 20.1 Z" fill="#020f4a" fill-opacity="1" stroke="none"/>
  <path id="Trazado-1" d="M253.8 79.5 C211.3 84.7 175.9 100.9 149.4 127.4 132.8 143.9 123.3 159.8 118 179.5 115.2 189.9 114.3 208.2 116 218.7 125.6 279.1 186.1 323.8 266.5 330 298.6 332.5 333.5 326.2 364.1 312.4 L371.7 309 381.6 314 C392.3 319.4 407.2 325 410.7 325 411.9 325 413.1 325.4 413.5 325.9 413.8 326.4 416.6 327.2 419.8 327.6 422.9 327.9 426.3 328.7 427.3 329.2 428.3 329.7 432.1 330.2 435.8 330.2 441 330.2 442.6 329.9 443.7 328.4 444.4 327.4 445 326.3 445 325.9 445 325.5 442.1 320.9 438.6 315.8 430.6 304 424.8 292.9 421 281.7 L418 273 422.8 266.7 C428.8 259 439.2 237.7 441.4 228.9 444 218.3 445.2 206.1 444.5 197.5 441 156.9 413.8 120.5 370.8 98.9 336.8 81.8 293.8 74.7 253.8 79.5 Z M298.1 89 C341.4 93.3 377.5 109 403.3 134.7 418 149.3 427.2 165.1 432.1 183.8 435 194.9 435 212.5 432.1 224.5 429.4 235.4 420.7 253.7 413.9 262.6 410.8 266.6 409 269.9 409 271.6 409 278.7 417.5 301.5 424 312.1 425.7 314.9 426.8 317.5 426.5 317.9 425.4 319.8 401.3 312.4 388.9 306.4 385.1 304.5 380.2 301.9 378 300.5 373.5 297.6 370.9 297.4 367.7 299.5 363.3 302.4 343.9 309.9 333.3 312.9 317.2 317.4 306.4 319.1 287.5 319.7 255.1 320.8 229.7 316.3 202.5 304.5 145 279.8 115.2 230.6 128 181.5 143.4 122.4 219.3 81.2 298.1 89 Z" fill="#020f4a" fill-opacity="1" stroke="none"/>
  <path id="Trazado-2" d="M222.5 144.9 C199.4 150.6 184.8 174 190.1 196.9 193.4 211.5 207 225.5 220.7 228.5 225.2 229.4 225.6 230.5 222.6 234.1 213.4 245 220.6 261 234.8 261 237.7 261 241.4 260.3 242.9 259.5 249.6 256.1 261.7 238.5 267.3 224.2 272.2 211.4 274.2 200.1 273.8 187 273.5 176.2 273.3 175 270.1 168.5 261.4 150.8 240.6 140.5 222.5 144.9 Z M245.6 157.5 C252.3 160.8 260 169.1 262.3 175.6 268.2 192.3 259.4 225.7 244 244.7 239.7 250 238.5 251 235.8 251 234.1 251 231.8 250.3 230.8 249.3 227.7 246.5 228.6 242.8 233.9 235.9 240.2 227.7 241.3 224.9 239.4 222.1 238.2 220.4 236.8 220 233 220 220.4 220 207.7 212.2 202.3 201.2 199.9 196.3 199.5 194.3 199.5 187 199.6 180.5 200.1 177.4 201.7 173.8 205.8 164.8 214.7 157.4 224.4 154.9 229.8 153.5 240 154.7 245.6 157.5 Z" fill="#dc3545" fill-opacity="1" stroke="none"/>
  <path id="Trazado-3" d="M318.3 146 C308.5 148.3 297.1 156.9 291.7 166.1 285.6 176.5 284.5 191.3 289 203.3 292.9 213.8 303 223.9 313 227.5 315.5 228.4 318.5 229.5 319.7 230 L322 231 319 235.7 C309.7 250.3 323.5 267.2 339.3 260.6 348.4 256.9 363.6 231.3 368.5 211.7 370.8 202.5 371.8 190.3 370.9 182 369.2 165.9 356.8 151.3 341 146.6 335.5 144.9 323.9 144.6 318.3 146 Z M342.1 157.9 C349.2 161.3 354.6 166.4 357.9 173.2 360.8 178.8 361 180.1 361 189.4 361 206.7 355.8 223.3 345.7 238.7 337.5 251.3 332.5 254.5 328 250 324.9 246.9 325.6 244.1 331.4 236 337.7 227.2 338.5 225.1 336.6 222.5 335.5 221 333.4 220.4 326.8 219.9 313.8 218.9 305.3 213.3 299.4 201.8 295.7 194.7 295.4 182 298.7 174.9 302.6 166.3 312 158 320.3 155.9 325.9 154.5 337.1 155.5 342.1 157.9 Z" fill="#dc3545" fill-opacity="1" stroke="none"/>
 </g>
 <g id="New-Group">
  <path id="Trazado-copia-11" d="M434.043 16.573 L440.806 13.098 C440.974 13.013 441.175 13.03 441.326 13.142 441.477 13.253 441.552 13.441 441.52 13.626 L440.217 21.164 445.708 26.5 C445.838 26.633 445.883 26.827 445.824 27.004 445.765 27.18 445.612 27.309 445.429 27.338 L437.859 28.454 434.478 35.31 C434.396 35.485 434.221 35.597 434.028 35.597 433.835 35.597 433.659 35.485 433.578 35.31 L430.196 28.454 422.627 27.338 C422.443 27.309 422.29 27.18 422.232 27.004 422.173 26.827 422.218 26.633 422.348 26.5 L427.839 21.164 426.536 13.626 C426.481 13.421 426.561 13.205 426.736 13.086 426.911 12.967 427.142 12.972 427.311 13.098 Z" fill="#a8cbeb" fill-opacity="1" stroke="none"/>
  <path id="Trazado-copia-8" d="M442.109 116.528 C442.109 119.954 439.331 122.732 435.905 122.732 432.478 122.732 429.7 119.954 429.7 116.528 429.7 113.101 432.478 110.323 435.905 110.323 439.331 110.323 442.109 113.101 442.109 116.528 Z" fill="none" stroke="#b8b9ba" stroke-width="4.964" stroke-opacity="1" stroke-linejoin="round"/>
  <path id="Trazado-copia-7" d="M365.173 23.46 L375.1 33.387" fill="none" stroke="#b8b9ba" stroke-width="4.964" stroke-opacity="1" stroke-linejoin="round"/>
  <path id="Trazado-copia-6" d="M375.1 23.46 L365.173 33.387" fill="none" stroke="#b8b9ba" stroke-width="4.964" stroke-opacity="1" stroke-linejoin="round"/>
  <path id="Trazado-copia-5" d="M457 87.987 C457 90.728 454.778 92.951 452.036 92.951 449.295 92.951 447.073 90.728 447.073 87.987 447.073 85.246 449.295 83.023 452.036 83.023 454.778 83.023 457 85.246 457 87.987 Z" fill="#b8b9ba" fill-opacity="1" stroke="none"/>
  <path id="Trazado-copia-4" d="M350.282 339.891 C350.282 343.318 347.504 346.096 344.077 346.096 340.651 346.096 337.873 343.318 337.873 339.891 337.873 336.464 340.651 333.687 344.077 333.687 347.504 333.687 350.282 336.464 350.282 339.891 Z" fill="none" stroke="#b8b9ba" stroke-width="4.964" stroke-opacity="1" stroke-linejoin="round"/>
  <path id="Trazado-copia-3" d="M72.908 25.073 C72.908 28.5 70.13 31.277 66.704 31.277 63.277 31.277 60.499 28.5 60.499 25.073 60.499 21.646 63.277 18.868 66.704 18.868 70.13 18.868 72.908 21.646 72.908 25.073 Z" fill="none" stroke="#b8b9ba" stroke-width="4.964" stroke-opacity="1" stroke-linejoin="round"/>
  <path id="Trazado-copia-2" d="M9.219 84.636 L19.146 94.564" fill="none" stroke="#b8b9ba" stroke-width="4.964" stroke-opacity="1" stroke-linejoin="round"/>
  <path id="Trazado-copia-1" d="M19.146 84.636 L9.219 94.564" fill="none" stroke="#b8b9ba" stroke-width="4.964" stroke-opacity="1" stroke-linejoin="round"/>
  <path id="Trazado-copia" d="M27.026 36.551 C27.026 39.293 24.803 41.515 22.062 41.515 19.321 41.515 17.098 39.293 17.098 36.551 17.098 33.81 19.321 31.588 22.062 31.588 24.803 31.588 27.026 33.81 27.026 36.551 Z" fill="#b8b9ba" fill-opacity="1" stroke="none"/>
 </g>
</svg>
