<?xml version="1.0" encoding="UTF-8"?>
<svg width="2584px" height="390px" viewBox="0 0 2584 390" xmlns="http://www.w3.org/2000/svg" xmlns:xlink="http://www.w3.org/1999/xlink" version="1.1">
 <!-- Generated by Pixelmator Pro 1.7 -->
 <path id="Trazado" d="M634.995 213.32 L634.953 368.82 683.453 368.833 731.953 368.846 731.995 213.346 732.037 57.846 683.537 57.833 635.037 57.82 Z" fill="#020f4a" fill-opacity="1" stroke="none"/>
 <path id="Trazado-1" d="M1326.037 58.907 C1324.137 59.307 1321.537 60.206 1320.337 60.806 1316.436 62.905 1307.432 78.102 1284.12 121.796 1271.514 145.293 1252.904 179.788 1242.799 198.485 1213.684 251.977 1150.953 368.06 1150.953 368.56 1150.953 368.76 1175.153 368.967 1204.753 368.975 L1258.453 368.989 1319.385 251.206 C1352.902 186.515 1380.617 133.222 1380.917 132.822 1381.417 132.223 1440.987 243.739 1440.986 245.339 1440.986 245.739 1424.886 246.034 1405.086 246.029 1385.086 246.024 1366.886 246.419 1363.886 247.018 1358.186 248.116 1355.385 250.115 1350.983 256.514 1348.782 259.714 1318.967 316.606 1318.967 317.706 1318.967 317.806 1353.967 318.115 1396.767 318.227 1472.766 318.547 1474.566 318.548 1477.966 320.549 1482.365 323.25 1487.463 330.951 1498.257 351.954 L1507.053 369.057 1612.253 369.085 1717.453 369.114 1767.367 316.127 1817.382 263.141 1820.281 265.842 C1821.78 267.442 1844.574 291.248 1870.766 318.855 L1918.453 369.168 2021.853 368.896 2125.353 368.725 2186.285 250.941 C2219.902 186.25 2247.617 133.258 2247.917 133.258 2248.417 133.258 2306.387 241.874 2307.786 245.374 2307.986 245.774 2290.186 246.269 2268.286 246.463 2222.686 246.751 2224.986 246.352 2218.083 256.25 2214.682 261.149 2185.967 315.941 2185.967 317.541 2185.967 317.941 2219.167 318.25 2259.866 318.261 2303.967 318.273 2335.866 318.682 2339.066 319.283 2347.066 320.685 2350.665 325.286 2363.058 349.189 L2373.453 369.192 2426.753 369.306 C2455.953 369.314 2479.953 369.021 2479.953 368.521 2479.953 368.121 2441.772 298.31 2395.095 213.298 L2310.137 58.775 2254.337 58.46 C2197.437 58.244 2189.537 58.642 2185.736 61.941 2181.735 65.54 2172.531 81.137 2152.821 118.032 2141.815 138.729 2121.605 176.224 2107.998 201.22 2094.392 226.216 2069.379 272.309 2052.47 303.705 2035.562 335.1 2021.455 360.996 2021.055 361.496 2020.655 361.896 1987.464 327.787 1947.175 285.776 L1874.096 209.256 1943.116 134.175 C1981.028 92.885 2012.037 58.894 2012.037 58.594 2012.037 58.394 1988.037 58.187 1958.637 58.179 L1905.337 58.165 1888.432 76.36 C1879.13 86.358 1859.724 107.252 1845.32 122.848 L1819.112 151.041 1775.425 104.53 1731.637 58.118 1677.737 58.103 1623.937 58.088 1625.737 60.389 C1626.736 61.689 1657.927 94.598 1695.017 133.508 1732.106 172.518 1762.497 204.526 1762.497 204.626 1762.497 205.026 1611.655 361.585 1610.955 361.885 1610.655 361.985 1572.773 293.674 1526.896 210.162 L1443.537 58.139 1386.537 58.124 C1355.237 58.215 1327.937 58.508 1326.037 58.907 Z" fill="#020f4a" fill-opacity="1" stroke="none"/>
 <path id="Trazado-2" d="M903.437 59.993 C839.735 64.575 791.928 91.562 770.316 135.357 763.012 149.955 757.107 170.853 755.002 189.052 752.997 206.152 754.188 239.352 757.384 254.453 770.767 318.057 812.157 354.368 884.953 366.488 894.353 368.09 906.053 368.293 1000.953 368.619 1085.353 368.942 1107.353 368.748 1110.453 367.749 1113.153 366.85 1115.554 364.95 1118.155 361.451 1121.856 356.652 1150.971 301.16 1150.972 299.06 1150.972 298.36 1113.572 297.95 1032.272 297.628 922.672 297.298 912.872 297.195 906.073 295.493 894.873 292.79 888.574 290.189 880.476 284.786 867.978 276.383 859.282 262.981 854.686 245.179 852.689 237.279 852.489 233.979 852.595 213.379 852.601 192.979 852.901 189.479 854.803 182.38 862.111 155.682 878.815 138.886 904.017 132.993 919.418 129.297 929.518 128.9 1016.018 128.923 1111.618 128.949 1104.418 129.547 1111.02 120.749 1113.721 117.15 1142.236 64.358 1143.837 59.858 1144.237 58.758 919.137 58.897 903.437 59.993 Z" fill="#020f4a" fill-opacity="1" stroke="none"/>
 <path id="Trazado-3" d="M2535.669 308.436 C2525.769 310.733 2515.966 318.831 2511.664 328.129 2509.863 331.929 2509.462 334.729 2509.46 342.329 2509.458 350.529 2509.857 352.629 2512.056 357.33 2515.254 364.23 2521.252 370.432 2528.151 374.034 2532.951 376.535 2534.351 376.836 2543.951 376.838 2553.351 376.841 2554.951 376.541 2559.451 374.142 2566.352 370.544 2572.754 363.946 2575.856 357.347 2578.157 352.547 2578.458 350.548 2578.36 342.348 2578.263 331.348 2576.464 326.147 2570.266 319.245 2561.469 309.543 2548.37 305.439 2535.669 308.436 Z" fill="#dc3545" fill-opacity="1" stroke="none"/>
 <path id="Trazado-4" d="M126.462 335.386 C122.661 336.885 119.361 338.384 119.161 338.784 118.961 339.184 113.56 341.383 107.16 343.781 100.759 346.079 95.258 348.378 94.958 348.778 93.958 350.278 26.251 373.559 22.651 373.758 21.451 373.758 18.851 374.457 16.951 375.157 13.951 376.256 52.251 376.566 261.251 376.623 L508.951 376.79 508.957 354.79 508.963 332.79 321.263 332.839 133.463 332.788 Z" fill="#020f4a" fill-opacity="1" stroke="none"/>
 <path id="Trazado-5" d="M247.28 270.219 C245.479 271.019 243.979 272.018 243.979 272.518 243.979 272.918 242.379 273.918 240.478 274.617 238.578 275.317 236.978 276.216 236.978 276.616 236.978 277.116 235.677 278.016 233.977 278.716 232.377 279.415 230.977 280.315 230.977 280.715 230.977 281.215 228.976 282.314 226.476 283.314 223.976 284.213 221.975 285.312 221.975 285.812 221.975 286.212 221.075 286.912 219.975 287.212 218.875 287.511 217.375 288.411 216.674 289.211 215.374 290.51 213.274 291.71 204.372 296.208 202.272 297.307 200.272 298.506 199.972 298.806 199.672 299.206 195.871 301.305 191.47 303.604 187.07 305.903 182.669 308.302 181.669 309.101 180.769 309.801 178.168 311 175.968 311.7 173.768 312.399 171.968 313.399 171.968 313.899 171.968 314.299 247.767 314.719 340.467 314.744 L508.967 314.79 508.974 291.79 508.98 268.79 379.78 268.755 C270.68 268.826 249.98 269.02 247.28 270.219 Z" fill="#dc3545" fill-opacity="1" stroke="none"/>
 <path id="Trazado-6" d="M329.496 209.841 C326.095 213.241 324.595 214.44 322.294 215.54 321.194 216.239 318.194 218.538 315.793 220.838 309.691 226.636 308.791 227.336 306.191 228.635 304.891 229.335 302.99 230.634 301.99 231.534 301.09 232.434 299.089 234.133 297.589 235.233 296.189 236.332 293.988 238.032 292.888 238.932 291.688 239.931 290.388 240.731 289.988 240.731 289.588 240.731 287.987 241.83 286.387 243.23 281.986 247.029 281.586 247.328 277.385 249.627 L273.485 251.626 391.285 251.758 508.985 251.79 508.991 229.79 508.996 207.79 420.296 207.866 C333.496 207.943 331.496 207.942 329.496 209.841 Z" fill="#020f4a" fill-opacity="1" stroke="none"/>
 <path id="Trazado-7" d="M388.51 156.258 C382.509 162.556 376.507 168.154 375.307 168.854 374.007 169.554 373.007 170.653 373.006 171.453 373.006 172.153 372.606 172.753 372.206 172.753 371.706 172.753 368.905 175.152 365.805 177.951 362.704 180.851 358.603 184.649 356.602 186.449 354.602 188.248 353.001 189.948 353.001 190.248 353.001 190.548 388.101 190.757 431.001 190.769 L509.001 190.79 509.007 167.79 509.014 144.79 454.314 144.875 399.514 144.96 Z" fill="#dc3545" fill-opacity="1" stroke="none"/>
 <path id="Trazado-8" d="M451.53 85.775 C451.129 86.875 449.829 89.074 448.528 90.574 447.228 92.073 445.127 94.573 443.827 96.073 442.526 97.572 439.726 100.871 437.525 103.371 435.324 105.87 432.423 109.269 431.023 110.969 428.922 113.568 423.32 119.767 416.818 126.865 415.018 128.765 415.918 128.765 462.018 128.777 L509.018 128.79 509.024 106.29 509.03 83.79 480.63 83.783 C452.93 83.775 452.13 83.875 451.53 85.775 Z" fill="#020f4a" fill-opacity="1" stroke="none"/>
 <path id="Trazado-9" d="M506.85 10.19 C505.85 11.189 505.049 12.589 505.049 13.389 505.049 14.189 504.449 15.089 503.649 15.389 502.849 15.689 501.748 17.288 501.148 18.888 500.647 20.488 499.747 21.788 499.247 21.788 498.747 21.787 497.747 23.087 497.046 24.787 496.346 26.387 495.445 27.787 495.045 27.786 494.645 27.786 493.745 29.086 493.045 30.786 492.344 32.386 491.444 33.785 491.044 33.785 490.644 33.785 489.743 35.085 489.043 36.785 488.342 38.385 487.442 39.784 486.942 39.784 486.442 39.784 485.342 41.184 484.441 42.984 482.84 46.183 481.84 47.483 478.839 50.782 477.939 51.782 476.638 53.681 475.938 54.881 474.637 57.481 474.137 58.081 470.436 62.28 L467.835 65.279 488.035 65.585 C499.235 65.688 508.535 65.69 508.735 65.49 508.935 65.29 508.939 52.39 508.843 36.79 508.55 9.79 508.451 8.49 506.85 10.19 Z" fill="#dc3545" fill-opacity="1" stroke="none"/>
</svg>
