<?xml version="1.0" encoding="UTF-8"?>
<svg width="604px" height="359px" viewBox="0 0 604 359" xmlns="http://www.w3.org/2000/svg" xmlns:xlink="http://www.w3.org/1999/xlink" version="1.1">
 <!-- Generated by Pixelmator Pro 1.7 -->
 <g id="group">
  <path id="Trazado" d="M414 5.4 C408.1 7.1 402.3 10.1 396.6 14.4 394.1 16.4 391.8 18 391.5 18 390.5 18 392.3 11.4 393.6 10.4 395.7 8.7 395.3 6 392.9 6 390.5 6 388.5 10.2 387.5 17.8 386.9 22.4 386 24 380.8 29.8 367.8 44.4 357.7 61.9 351.2 80.8 347.8 90.8 347.6 92.3 347.6 104 347.5 115.7 347.7 116.9 350.4 122.8 355.3 133.3 364.4 139.7 378.2 142 L384.9 143.2 385.5 147.5 C386.7 154.9 386.2 155.5 380 155.5 375.8 155.5 374.5 155.9 374.5 157 374.5 158 375.7 158.6 378 158.8 386.1 159.4 385.7 158.7 386.4 171.7 388.2 202.4 390.5 222.4 393 227 394 229 396 229.6 397.3 228.4 397.6 228 397.3 226.8 396.5 225.6 394.1 221.8 391.5 200.5 390.4 175.1 L389.7 159.8 392.6 160.4 C394.2 160.7 398.4 161.4 402 162 423.5 165.6 457.6 176.3 486.9 188.8 523.7 204.4 569 229.7 569 234.7 569 235.4 569.9 236 571 236 574.2 236 573.4 233 569.1 229.1 559 219.8 513.7 195.6 483 183.1 458.5 173.1 417.1 160 409.8 160 408.8 160 408 159.5 408 159 408 158.4 409.3 158 410.9 158 415.6 158 427.1 155.3 434.6 152.5 464.6 141.3 481.4 116.4 481.2 83.6 481.1 51 464.7 19.8 441.9 8.6 435.5 5.4 433 4.8 426.4 4.4 421.6 4.2 416.7 4.6 414 5.4 Z M435.4 9.9 C452.4 15.8 468.4 36.2 474.5 59.5 484.8 99.3 469.5 134.5 435.8 147.9 426.3 151.8 410.9 154.8 399 155.2 L389.5 155.5 389.2 149.2 388.9 143 393.3 143 C399.7 143 404 142 404 140.4 404 139.3 402.2 139 396.6 139 L389.2 139 388.5 117.2 C388 104.4 388.2 81.2 388.9 60.5 L390 25.5 395.2 20.7 C407.9 9 422.1 5.2 435.4 9.9 Z M385.2 84.9 L384.8 139.2 379.8 138.6 C346.1 134.1 340.9 99.1 367.4 54.6 371.7 47.3 384.9 29.5 385.4 30.2 385.6 30.4 385.5 55 385.2 84.9 Z" fill="#212529" fill-opacity="1" stroke="none"/>
  <path id="Trazado-1" d="M570.1 64.6 C564.6 68.5 563.7 78 567.1 97.9 L569.1 110.1 566 117.6 C555.6 142.7 554.1 163.7 562.3 170.6 566.4 174.1 571.1 173.8 574.4 169.9 575.8 168.2 577.3 165.7 577.6 164.3 578.7 160 577.2 134.1 575.1 122.5 573.2 111.7 573.2 111.5 575.1 107.8 578.4 101.3 588.6 91.3 593.8 89.4 599.7 87.2 600.4 86.6 598.7 85.2 597.6 84.3 596.3 84.3 593.1 85.5 587.3 87.5 581.5 92.3 576.4 99.2 573.1 103.7 572 104.6 571.6 103.3 570.1 98.2 568 78.9 568.5 75.3 569.9 65.9 576 64.3 577 73.1 577.6 78.3 580.3 79.3 580.8 74.6 581.3 70.6 580.3 67.3 578 65 575.6 62.6 573.2 62.5 570.1 64.6 Z M571.9 125.5 C575.5 149.6 575.6 161.9 572.4 166.7 571.2 168.6 570.1 169 567.7 168.8 559.1 168 558.7 148.8 566.7 125.7 568.1 121.5 569.7 118 570.1 118 570.4 118 571.3 121.4 571.9 125.5 Z" fill="#212529" fill-opacity="1" stroke="none"/>
  <path id="Trazado-2" d="M110.5 75.5 C99.1 78.5 87.5 82.5 73.1 88.4 64.5 91.9 61.4 92.8 60.4 91.9 58.8 90.6 57 91.5 57 93.8 57 95 54.8 96.5 50.3 98.4 38.9 103.3 21.9 112 14.8 116.6 7.1 121.5 5 124.4 7.3 126.7 9.1 128.5 11 127.6 11 125.2 11 124.2 13.4 121.9 16.8 119.7 22.6 115.9 54.1 100 55.8 100 56.3 100 57 125.9 57.4 164.7 58.3 252.2 60.2 308.9 62.6 322.5 63.1 325.5 63 325.5 47.9 333 31.1 341.3 24 345.4 24 347 24 349 27.1 347.8 44.2 339 53.8 334.1 62.2 330 62.8 330 63.3 330 64.3 331.3 64.9 333 65.6 335 66.6 336 67.9 336 70.4 336 70.5 335.2 68.5 331.4 67.7 329.8 67.4 328.2 67.9 327.7 69.5 326.1 90.4 318 99.3 315.5 105.2 313.9 111.1 313 115.8 313 122.3 313 123.1 312.8 122.8 311.2 122.5 309.8 121.2 309.4 116.2 309.2 108.5 308.8 95.2 312.2 79.3 318.5 73.2 321 67.8 323 67.2 323 66.7 323 66 320.9 65.6 318.4 63.3 301.4 61 215.4 61 145.4 L61 97.4 72.3 92.7 C93.6 83.9 115.6 77 122.6 77 125.7 77 127 76.6 127 75.6 127 72.3 122.5 72.3 110.5 75.5 Z" fill="#212529" fill-opacity="1" stroke="none"/>
  <path id="Trazado-3" d="M497.4 75.8 C494.1 78 492.5 88 495.5 88 496.5 88 497.2 86.6 497.6 83.9 498.1 81 498.9 79.6 500.2 79.2 501.3 79 502 78 501.8 77.1 501.4 75.3 499.1 74.6 497.4 75.8 Z" fill="#212529" fill-opacity="1" stroke="none"/>
  <path id="Trazado-4" d="M547.4 85.3 C547.1 86.1 547.4 87.9 548 89.4 549.3 92.9 549.3 93 547.5 93 546.7 93 545.8 94.1 545.4 95.4 544.4 99.4 519.9 120.4 511.3 124.6 501.1 129.7 497.9 125.8 497.7 108.1 497.5 99.4 497.2 97.5 496 97.5 493.8 97.5 493.4 114.4 495.5 121.6 497.3 127.9 499.9 130 505.5 130 511.7 130 517 126.5 539.4 107.8 L542.6 105.2 542.2 112.1 C541.7 120.5 542.4 123.6 545 125 548.3 126.8 551 125.2 553.2 120.2 555 116.3 555.2 114.3 554.7 106.1 554 93 549.5 80 547.4 85.3 Z M551 101.6 C552.3 108.9 551.3 117.4 549 120.3 L547.2 122.5 546 119.6 C545.3 117.5 545.2 114.7 546 109.6 547.1 101.7 548.9 94.6 549.6 95.3 549.9 95.5 550.5 98.4 551 101.6 Z" fill="#212529" fill-opacity="1" stroke="none"/>
  <path id="Trazado-5" d="M276.7 154.4 C274.8 156.3 272.5 159.9 271.7 162.5 270.4 166.1 268 169.1 260.8 175.9 241.3 194.3 231.9 201.8 226.4 203.4 220.9 205 218.3 196.9 220.1 183.6 220.7 179.2 221.4 173.8 221.7 171.7 222.1 168.5 221.9 168 220.2 168 218.6 168 218.1 168.9 217.5 172.7 216.1 182 205.3 200 201.2 200 198.4 200 202.5 186.5 206.8 181.6 208.7 179.4 209.3 179.2 211 180.2 213.4 181.7 214.8 180.5 213.4 178.2 212.7 177.1 211 176.5 208.9 176.5 206 176.5 205.1 177.1 202.5 181 198.9 186.5 171.7 211.7 163.6 217.1 157.3 221.3 152.7 222.1 151.1 219.2 148.7 214.7 148.8 208.3 151.6 190.2 152.2 186.4 152.1 186 150.2 186 148.5 186 148 186.8 147.4 190.7 146.5 197 140.9 208.1 135.8 213.6 133.6 216 131.4 218 130.9 218 129.3 218 130 213.1 132.6 206.6 135.7 198.8 138 196.4 140.9 197.9 143.1 199.1 144.3 198 143.4 195.6 141.8 191.4 135.3 193.4 132.2 199.1 131.1 201.1 128.3 203.1 124.2 205.1 119.4 207.4 116.7 209.7 112.5 214.8 109.5 218.4 107 221.8 107 222.2 107 222.6 106.6 223 106.1 223 105.1 223 102 203.4 102 197 102 192.4 104.6 185.9 106.6 185.3 108.8 184.6 111 188.1 111 192 111 196.6 112.4 197.9 114 194.9 115.4 192.4 114.6 187.3 112.4 184.2 111.2 182.4 110 182 107.2 182.2 102.8 182.6 99.6 186.7 98.6 193.3 98 197.2 99.6 211.6 101.9 223.5 102.8 228.1 102.6 229.1 99.4 236.7 94.1 249.2 91 262.7 91 272.9 91.1 283.4 92.9 287.7 98.2 290.3 101.5 291.9 102.2 291.9 105.3 290.7 110.4 288.5 111.5 284.8 111.5 270 111.4 261.8 110.6 252.6 109.1 243.3 L106.8 229.2 110.4 223.7 C114.7 217.3 124.2 208 126.5 208 127.7 208 128 208.5 127.5 209.7 127.1 210.7 126.6 213.3 126.3 215.5 125 225.8 134.6 222.9 142.9 210.6 L145.5 206.6 146.1 212.6 C147.9 231 157.7 229 183.7 205.2 190.4 199 196.1 194 196.3 194 196.5 194 196.6 195.9 196.6 198.1 196.4 206.8 203.5 205.4 211.2 195.1 L215.8 189.1 216.2 195.1 C216.7 201.4 219.2 206.2 222.5 206.8 228.2 208 238.6 201.6 253 188.3 268.9 173.6 268.5 173.9 268.8 176.3 271.5 194.6 282 195.9 301.6 180.4 309.1 174.4 327 157.2 327 155.9 327 153 323.6 155.1 314.4 164 298.9 178.7 290.5 184.9 282.7 187.1 269.5 190.9 269.8 161.3 283.1 154.5 286.4 152.7 286.1 151 282.5 151 281.1 151 278.6 152.4 276.7 154.4 Z M105.9 246.5 C108.3 263.4 108.9 273.1 108 278.7 106.9 285.5 104.4 288.6 100.6 287.6 92.5 285.6 92.7 264.9 101.2 241.8 103.7 234.8 104.3 235.4 105.9 246.5 Z" fill="#212529" fill-opacity="1" stroke="none"/>
 </g>
</svg>
